<?xml version="1.0" standalone="no"?>
<!DOCTYPE svg PUBLIC "-//W3C//DTD SVG 20010904//EN"
 "http://www.w3.org/TR/2001/REC-SVG-20010904/DTD/svg10.dtd">
<svg version="1.0" xmlns="http://www.w3.org/2000/svg"
 width="500.000000pt" height="500.000000pt" viewBox="0 0 500.000000 500.000000"
 preserveAspectRatio="xMidYMid meet">

<g transform="translate(0.000000,500.000000) scale(0.100000,-0.100000)"
fill="#000000" stroke="none">
<path d="M2355 2993 c-32 -75 -65 -142 -73 -149 -11 -12 -9 -14 17 -14 22 0
29 4 25 14 -3 8 2 28 11 45 14 28 20 31 66 31 45 0 50 -3 60 -27 6 -15 8 -35
6 -45 -5 -16 2 -18 50 -18 53 0 55 1 40 18 -8 9 -41 73 -72 142 -31 69 -59
128 -63 132 -4 4 -34 -54 -67 -129z m69 -6 c9 -23 16 -46 16 -50 0 -4 -18 -7
-40 -7 -22 0 -40 4 -40 10 0 17 32 90 40 90 4 0 15 -19 24 -43z"/>
<path d="M2990 3093 c0 -7 -25 -67 -56 -133 -41 -86 -62 -120 -74 -120 -10 0
-32 21 -50 50 -18 28 -37 50 -44 50 -6 0 1 10 17 21 21 17 27 29 27 60 0 36
-3 41 -35 55 -19 7 -63 14 -97 14 l-63 0 0 -130 0 -130 35 0 35 0 -3 120 -3
120 24 0 c33 0 49 -22 45 -62 -2 -22 -10 -36 -24 -42 l-21 -9 24 -42 c36 -66
56 -79 129 -83 55 -4 63 -2 58 11 -3 9 -1 25 6 36 8 17 20 21 59 21 50 0 61
-9 61 -51 0 -16 7 -19 46 -19 38 0 44 3 35 13 -6 8 -38 70 -71 138 -32 68 -60
119 -60 112z m15 -145 l15 -38 -40 0 c-45 0 -47 5 -23 55 19 39 25 37 48 -17z"/>
<path d="M3180 3071 c5 -11 10 -61 10 -111 0 -50 -5 -100 -10 -111 -10 -18 -7
-19 37 -19 36 0 44 3 35 12 -8 8 -12 49 -12 118 0 69 4 110 12 118 9 9 1 12
-35 12 -44 0 -47 -1 -37 -19z"/>
<path d="M3375 3074 c-49 -25 -65 -53 -65 -115 0 -46 4 -61 25 -83 31 -33 64
-46 121 -46 63 0 104 23 103 58 0 25 -1 25 -9 6 -24 -59 -104 -72 -151 -25
-26 26 -29 36 -29 91 0 55 3 65 29 91 38 38 91 40 126 4 l25 -24 0 23 c0 16
-7 26 -22 30 -42 11 -123 6 -153 -10z"/>
<path d="M3673 3075 c-66 -28 -92 -118 -53 -182 26 -43 68 -63 133 -63 88 0
147 52 147 130 0 77 -59 130 -144 130 -28 -1 -66 -7 -83 -15z m132 -19 c45
-45 45 -147 0 -192 -50 -50 -126 -17 -140 60 -16 83 24 156 85 156 19 0 40 -9
55 -24z"/>
<path d="M1095 2930 c-3 -5 14 -21 37 -36 188 -118 276 -178 296 -203 l22 -29
-50 -11 c-80 -17 -89 -15 -139 39 -27 29 -56 50 -68 50 -18 0 -20 -4 -15 -45
2 -25 2 -45 -1 -45 -4 0 -32 11 -63 25 -31 14 -66 25 -77 25 -18 0 -11 -10 34
-57 31 -32 59 -66 62 -75 4 -10 13 -18 20 -18 8 0 25 -16 38 -35 29 -43 55
-45 64 -7 l6 29 149 0 149 0 35 -29 36 -29 0 -85 c0 -84 0 -85 23 -79 32 10
31 9 91 140 l55 120 103 22 c57 12 129 31 161 43 56 21 95 58 83 79 -4 5 -34
19 -69 30 -51 17 -69 19 -102 10 -22 -5 -83 -19 -135 -30 l-95 -19 -297 115
c-284 110 -340 127 -353 105z"/>
<path d="M2355 2613 c-32 -75 -65 -142 -73 -149 -11 -12 -9 -14 17 -14 22 0
29 4 25 14 -3 8 2 28 11 45 14 28 20 31 66 31 45 0 50 -3 60 -27 6 -15 8 -35
6 -45 -5 -16 2 -18 50 -18 53 0 55 1 40 18 -8 9 -41 73 -72 142 -31 69 -59
128 -63 132 -4 4 -34 -54 -67 -129z m69 -6 c9 -23 16 -46 16 -50 0 -4 -18 -7
-40 -7 -22 0 -40 4 -40 10 0 17 32 90 40 90 4 0 15 -19 24 -43z"/>
<path d="M2608 2703 c9 -3 12 -38 12 -123 0 -85 -3 -120 -12 -123 -7 -3 7 -6
32 -6 l45 -1 0 130 0 130 -45 -1 c-25 0 -39 -3 -32 -6z"/>
<path d="M2765 2580 l0 -130 45 1 c25 0 39 3 33 6 -9 3 -13 37 -13 119 l0 114
30 0 c52 0 67 -73 21 -102 -19 -11 -19 -13 4 -58 29 -57 43 -69 90 -77 l37 -6
-43 57 c-23 31 -46 56 -51 56 -6 0 4 13 21 29 17 16 31 37 31 46 0 50 -47 75
-144 75 l-61 0 0 -130z"/>
<path d="M3048 2698 c16 -16 16 -220 0 -236 -9 -9 10 -12 85 -12 77 0 97 3 97
14 0 8 3 22 7 32 5 14 2 13 -15 -4 -22 -22 -83 -39 -101 -27 -16 9 -14 218 1
233 9 9 1 12 -37 12 -38 0 -46 -3 -37 -12z"/>
<path d="M3290 2691 c5 -11 10 -61 10 -111 0 -50 -5 -100 -10 -111 -10 -18 -7
-19 37 -19 36 0 44 3 35 12 -8 8 -12 49 -12 118 0 69 4 110 12 118 9 9 1 12
-35 12 -44 0 -47 -1 -37 -19z"/>
<path d="M3438 2581 l-3 -131 35 0 35 0 -3 87 -4 86 72 -64 c40 -35 84 -74 99
-85 l26 -22 -4 114 c-2 81 0 119 9 129 11 13 7 15 -26 15 l-39 0 3 -87 4 -88
-24 21 c-13 11 -58 51 -100 88 l-77 67 -3 -130z"/>
<path d="M3775 2580 l0 -130 86 0 c70 0 88 3 93 16 11 29 6 37 -13 20 -11 -10
-38 -20 -60 -23 l-41 -6 0 58 0 57 40 -4 c33 -3 40 -1 40 15 0 14 -4 16 -19 7
-11 -5 -29 -10 -40 -10 -19 0 -21 6 -21 56 l0 56 50 -4 c35 -2 50 1 50 10 0 8
-23 12 -82 12 l-83 0 0 -130z"/>
<path d="M4032 2694 c-15 -10 -22 -25 -22 -48 0 -35 16 -54 88 -99 24 -16 42
-35 42 -45 0 -47 -66 -57 -106 -17 -30 30 -34 31 -34 5 0 -26 29 -40 83 -40
60 0 97 29 97 76 0 29 -6 38 -41 62 -82 55 -95 69 -83 89 15 25 61 29 85 7 18
-16 19 -16 19 4 0 20 -5 22 -53 22 -31 0 -61 -6 -75 -16z"/>
<path d="M3390 2116 c0 -2 8 -10 18 -17 15 -13 16 -12 3 4 -13 16 -21 21 -21
13z"/>
</g>
</svg>
